<?xml version="1.0" encoding="UTF-8" standalone="no"?>
<!-- Created with Inkscape (http://www.inkscape.org/) -->

<svg
   xmlns:dc="http://purl.org/dc/elements/1.1/"
   xmlns:cc="http://creativecommons.org/ns#"
   xmlns:rdf="http://www.w3.org/1999/02/22-rdf-syntax-ns#"
   xmlns:svg="http://www.w3.org/2000/svg"
   xmlns="http://www.w3.org/2000/svg"
   xmlns:sodipodi="http://sodipodi.sourceforge.net/DTD/sodipodi-0.dtd"
   xmlns:inkscape="http://www.inkscape.org/namespaces/inkscape"
   version="1.1"
   id="svg2"
   width="149.23729"
   height="102.98288"
   viewBox="0 0 149.23729 102.98288"
   sodipodi:docname="thot.svg"
   inkscape:version="0.92.1 r">
  <metadata
     id="metadata8">
    <rdf:RDF>
      <cc:Work
         rdf:about="">
        <dc:format>image/svg+xml</dc:format>
        <dc:type
           rdf:resource="http://purl.org/dc/dcmitype/StillImage" />
        <dc:title></dc:title>
      </cc:Work>
    </rdf:RDF>
  </metadata>
  <defs
     id="defs6">
    <clipPath
       clipPathUnits="userSpaceOnUse"
       id="clipPath237">
      <path
         style="fill:none;stroke:#000000;stroke-width:1px;stroke-linecap:butt;stroke-linejoin:miter;stroke-opacity:1"
         d="M 60.635593,105.55085 217.38983,102.40678 215.59322,1.7966097 H 60.635593 Z"
         id="path239"
         inkscape:connector-curvature="0" />
    </clipPath>
  </defs>
  <sodipodi:namedview
     pagecolor="#ffffff"
     bordercolor="#666666"
     borderopacity="1"
     objecttolerance="10"
     gridtolerance="10"
     guidetolerance="10"
     inkscape:pageopacity="0"
     inkscape:pageshadow="2"
     inkscape:window-width="1920"
     inkscape:window-height="1020"
     id="namedview4"
     showgrid="false"
     fit-margin-top="0"
     fit-margin-left="0"
     fit-margin-right="0.2"
     fit-margin-bottom="0"
     inkscape:zoom="2.2264151"
     inkscape:cx="152.20289"
     inkscape:cy="71.393673"
     inkscape:window-x="0"
     inkscape:window-y="0"
     inkscape:window-maximized="1"
     inkscape:current-layer="svg2" />
  <path
     style="fill:#ffffff"
     d="m 92.372882,401.24258 c -1.375,-0.2528 -3.0177,-0.88444 -3.650446,-1.40364 -0.723966,-0.59405 -6.8434,-0.50655 -16.50742,0.23604 -8.586951,0.65982 -18.771309,0.86009 -23.101974,0.45427 -7.019607,-0.65779 -7.800419,-0.94658 -8.336723,-3.08338 -0.757701,-3.01892 0.163987,-4.47129 2.837528,-4.47129 2.404248,0 19.232241,-6.67294 28.232565,-11.19529 7.43711,-3.73689 14.209831,-8.54616 15.043994,-10.68266 2.133103,-5.46339 13.782794,-65.2909 14.504154,-74.48669 0.46874,-5.97555 1.31158,-12.95055 1.87296,-15.5 0.56139,-2.54945 3.34686,-28.89544 6.18994,-58.54664 5.75388,-60.00871 5.97278,-70.05313 1.95244,-89.58872 -2.12681,-10.33457 -6.63966,-25.78328 -7.95984,-27.24864 -0.37096,-0.41176 -1.49021,3.63824 -2.48723,9 -2.107766,11.33515 -9.058269,34.65444 -13.337689,44.74864 -8.198452,19.33833 -17.298328,34.36856 -27.974261,46.20499 l -8.302494,9.205 0.339585,76.795 c 0.186771,42.23726 0.693368,78.25758 1.125769,80.04516 0.432402,1.78758 0.482527,5.27508 0.11139,7.75 -0.646097,4.30848 -0.817974,4.49985 -4.041565,4.49985 -3.336681,0 -3.373,-0.0498 -4.063698,-5.57801 -0.436769,-3.49579 -0.276984,-6.49969 0.428044,-8.04706 0.801543,-1.75919 1.12497,-24.16494 1.12497,-77.9336 v -75.46456 l -3.25,-4.93611 c -2.528993,-3.84104 -3.913728,-5.00317 -6.241811,-5.23839 -5.253193,-0.53075 -4.444962,-3.43742 2.887243,-10.38352 l 6.604568,-6.25677 v -65.78099 c 0,-49.277889 -0.286288,-65.494706 -1.141137,-64.639859 -0.627625,0.62763 -1.363479,3.4551 -1.635231,6.28328 -0.504906,5.25466 -2.58502,7.61267 -4.297212,4.8713 -0.926958,-1.48414 -0.306495,-10.068 1.150563,-15.917599 1.193095,-4.789877 6.618677,-11.978116 9.040913,-11.978116 3.091172,0 3.306995,2.706335 0.483426,6.061956 -3.126104,3.715164 -3.167046,4.10365 -0.601321,5.705971 1.967043,1.228439 2.000501,2.348807 2.030409,67.990547 0.02046,44.89746 0.357056,66.1812 1.028435,65.02951 0.548915,-0.94161 3.276588,-7.46661 6.061496,-14.5 2.784907,-7.03339 7.455661,-17.51298 10.379451,-23.28798 5.01619,-9.90786 5.349617,-11.03709 5.912382,-20.02383 0.328019,-5.23811 1.535035,-15.13811 2.682258,-22 1.147222,-6.8619 2.177057,-17.201169 2.288523,-22.976169 0.167374,-8.67165 0.591728,-11.24238 2.437017,-14.76341 3.349229,-6.39071 8.757617,-9.76395 19.714097,-12.295762 7.32991,-1.693789 9.72063,-2.680613 10.91676,-4.506131 2.75427,-4.203549 6.78117,-7.255691 10.96185,-8.308398 3.16864,-0.797873 4.97284,-2.170735 7.90406,-6.014403 3.36698,-4.415074 3.7633,-5.527284 3.49073,-9.796219 l -0.30747,-4.815682 -6.43159,0.305043 c -17.779,0.843238 -37.052665,14.337455 -42.173727,29.527412 -1.430765,4.243895 -2.202642,5.224102 -4.31842,5.48397 -2.428425,0.29826 -2.576261,0.0621 -2.576261,-4.115646 0,-11.315235 11.828788,-25.925448 30.117968,-37.19992 5.16012,-3.180983 10.85704,-7.067225 12.65983,-8.6360929 6.5727,-5.719849 10.96344,-7.298566 20.2222,-7.271018 17.08014,0.05082 30.90735,6.251938 44.67718,20.0364779 7.51339,7.521415 9.92064,10.722948 13.27792,17.659097 5.92428,12.239532 8.96671,26.745622 9.28909,44.289622 l 0.25581,13.92106 -2.5,0.29239 -2.5,0.29238 0.41541,30.207619 c 0.68842,50.06062 0.63398,55.78235 -0.63479,66.70761 -1.10106,9.48116 -1.30565,15.00778 -1.07353,29 0.0617,3.71883 -1.14446,7.72653 -3.98769,13.25 -0.21234,0.4125 1.45143,0.75 3.69727,0.75 4,0 4.08333,0.0714 4.08333,3.5 v 3.5 h -5.04578 -5.04579 l 0.68874,10 0.68874,10 h -3.70937 -3.70937 l 0.31642,-10.00218 0.31641,-10.00218 -4.78444,0.002 -4.78445,0.002 0.53445,5 c 0.29394,2.75 0.78323,7.3625 1.0873,10.25 0.83978,7.97456 3.1843,16.15322 7.57947,26.44041 l 3.98103,9.31789 3.38501,37.24585 c 1.86175,20.48522 4.17985,43.01144 5.15133,50.05827 1.5409,11.17721 1.58025,12.93013 0.30832,13.73469 -1.8554,1.17363 -6.67116,1.22605 -7.37926,0.0803 -0.2966,-0.47991 -2.36199,-14.54241 -4.58976,-31.25 -2.22778,-16.7072 -4.19202,-31.05205 -4.36499,-31.87705 -0.61993,-2.9568 -1.36531,1.30059 -3.62027,20.67792 -1.73364,14.89755 -2.07363,21.59836 -1.5233,30.02259 0.65103,9.96595 0.54579,11.04541 -1.29887,13.32208 -1.67296,2.06476 -2.84341,2.46548 -7.02703,2.4058 -2.76085,-0.0394 -5.66319,-0.60565 -6.44965,-1.25835 -1.10075,-0.91353 -5.31753,-0.91956 -18.31741,-0.0262 -10.83041,0.74431 -19.21885,0.83697 -23.38748,0.25834 -6.34571,-0.8808 -6.5,-0.97303 -6.5,-3.88526 0,-2.62557 0.41941,-3.0566 3.5,-3.59698 5.34178,-0.93702 24.75661,-9.8439 31.5,-14.45115 l 6,-4.09935 0.3006,-5.70811 c 0.16533,-3.13946 -1.29446,-17.73509 -3.24397,-32.43474 -4.73547,-35.70618 -5.05283,-37.44643 -8.00457,-43.89389 -1.40363,-3.06589 -2.55206,-6.2553 -2.55206,-7.08752 0,-0.83223 -0.52123,-3.25285 -1.15829,-5.37916 -1.10603,-3.69161 -1.34802,-3.86602 -5.36404,-3.86602 h -4.20575 l -3.21317,10.75 c -2.17315,7.27052 -3.64815,15.16372 -4.55707,24.38639 -1.45389,14.75248 -2.71494,18.78066 -12.00185,38.3377 -9.57864,20.17135 -11.76134,26.98442 -12.26797,38.29304 -0.42624,9.51437 -0.64479,10.41252 -2.98077,12.25 -2.468221,1.94151 -4.212125,2.17731 -9.251088,1.25087 z m 8.863308,-4.018 c 0.51352,-0.9625 1.09002,-6.69142 1.28112,-12.73093 l 0.34745,-10.98093 -5.995938,-1.36818 -5.99594,-1.36818 -4.50768,4.34911 c -2.479224,2.39201 -7.654224,5.98989 -11.5,7.9953 -9.366752,4.88434 -26.599825,11.85381 -29.310372,11.85381 -1.272844,0 -2.181949,0.62497 -2.181949,1.5 0,1.26634 2.325293,1.5 14.927642,1.5 8.210202,0 18.398832,-0.4828 22.6414,-1.07289 6.643444,-0.92401 7.932004,-0.85464 9.286645,0.5 2.23449,2.23449 9.785782,2.11299 11.007622,-0.17711 z m 78.10156,0.79287 c 1.15476,-0.73036 1.38647,-2.79117 1.09452,-9.73468 -0.2037,-4.84451 -0.39988,-10.15819 -0.43597,-11.80819 l -0.0656,-3 -8.27891,0.32347 c -4.5534,0.17791 -8.27891,0.67521 -8.27891,1.10511 0,3.20768 -32.9846,20.07142 -39.25864,20.07142 -1.8812,0 -2.76141,0.44137 -2.49281,1.25 0.57789,1.73972 24.4835,2.21159 36.62756,0.72297 8.23747,-1.00974 9.56899,-0.95644 10.96429,0.43886 1.73253,1.73253 7.78635,2.10986 10.12447,0.63104 z m 24.03143,-2.79287 c -0.002,-0.9625 -0.87951,-8.5 -1.94996,-16.75 -1.07044,-8.25 -2.42219,-20.85 -3.00389,-28 -0.58169,-7.15 -1.27042,-14.575 -1.5305,-16.5 -0.26008,-1.925 -0.73748,-7.55 -1.0609,-12.5 -0.32341,-4.95 -0.83392,-9.9 -1.13447,-11 -0.5848,-2.14035 -4.1948,-6.5 -5.38231,-6.5 -0.39441,0 -1.44097,1.80911 -2.32569,4.02024 -1.84261,4.60514 -2.13824,7.29517 -0.54727,4.97976 0.73389,-1.06805 0.89089,0.51578 0.54523,5.5 -0.33455,4.8239 -0.23434,5.91195 0.32235,3.5 l 0.80783,-3.5 0.13164,3.56634 c 0.0724,1.96149 0.5466,6.01149 1.05376,9 0.50717,2.98851 1.65929,11.05866 2.56027,17.93366 6.47581,49.41445 6.20742,48 9.10796,48 1.62965,0 2.40845,-0.56647 2.40595,-1.75 z m -28.73255,-22.95393 c -1.22994,-0.23736 -3.47994,-0.24351 -5,-0.0136 -1.52006,0.22985 -0.51375,0.42406 2.23625,0.43157 2.75,0.007 3.99369,-0.18056 2.76375,-0.41792 z M 51.372882,371.59702 c 0,-0.20765 -0.634938,-0.9045 -1.410972,-1.54855 -1.080419,-0.89667 -1.585163,-0.88916 -2.154509,0.0321 -0.45449,0.73538 -0.321589,0.94229 0.341874,0.53225 0.596976,-0.36895 1.368062,-0.21348 1.713526,0.34549 0.618203,1.00023 1.510081,1.37749 1.510081,0.63871 z m 53.999998,-1.42967 c 0,-1.02823 -13.863312,-4.66279 -14.677958,-3.84814 -0.705093,0.70509 0.199786,1.06193 7.67796,3.0278 6.810338,1.7903 6.999998,1.81253 6.999998,0.82034 z m 73,0.0184 -2.5,-0.51648 2.5,-0.81767 c 2.1049,-0.68845 1.91844,-0.77637 -1.17985,-0.55633 -2.02392,0.14374 -3.45987,-0.0946 -3.19099,-0.52967 0.26888,-0.43507 1.78576,-0.79102 3.37084,-0.79102 1.58508,0 3.16008,-0.45 3.5,-1 0.39721,-0.6427 -2.70804,-0.95297 -8.69098,-0.86836 -6.74996,0.0954 -8.34687,0.33417 -5.80902,0.86836 l 3.5,0.73672 -3.5,0.26328 -3.5,0.26328 3.5,0.73672 c 3.14813,0.66265 3.22353,0.74995 0.75,0.86836 -1.5125,0.0724 -2.75,0.58164 -2.75,1.13164 0,0.59686 3.32588,0.9451 8.25,0.86382 4.5375,-0.0749 7.125,-0.3686 5.75,-0.65266 z M 49.12261,251.79886 c -0.150491,-21.62836 -0.273686,-4.22428 -0.273765,38.67572 -8e-5,42.9 0.12305,60.59592 0.273621,39.32428 0.150571,-21.27165 0.150636,-56.37165 1.44e-4,-78 z m 57.96697,113.55908 c -0.98565,-0.98565 -15.716698,-4.19959 -15.716698,-3.42898 0,0.38382 2.8125,1.4007 6.25,2.25973 6.773388,1.69267 10.443408,2.14596 9.466698,1.16925 z m -12.987531,-0.98753 c -0.332292,-0.33229 -1.194792,-0.36781 -1.916667,-0.0789 -0.797733,0.31922 -0.560776,0.55618 0.604167,0.60416 1.054166,0.0434 1.644791,-0.19293 1.3125,-0.52522 z m 82.551001,-1.12656 c -2.3209,-0.20972 -6.3709,-0.21222 -9,-0.006 -2.62909,0.20667 -0.73017,0.37827 4.21983,0.38131 4.95,0.003 7.10108,-0.16605 4.78017,-0.37577 z m -61.85137,-15.28212 c 8.75796,-18.49804 10.58524,-24.41364 11.56853,-37.4518 0.72787,-9.65124 3.71392,-23.38529 6.91497,-31.80467 0.91735,-2.41283 0.81555,-2.47421 -5.13489,-3.09616 -3.33893,-0.34898 -9.55752,-0.63452 -13.81906,-0.63452 h -7.74828 l -0.58529,4.25 c -0.3219,2.3375 -1.00063,9.2 -1.50827,15.25 -0.50765,6.05 -3.44153,22.98059 -6.51975,37.62354 -6.187244,29.43246 -5.985468,28.23473 -4.613768,27.38697 0.540644,-0.33413 2.670645,-0.29091 4.733335,0.096 3.004943,0.56373 3.358773,0.84093 1.780237,1.39465 -1.140109,0.39992 0.245236,0.64515 3.288296,0.58208 l 5.25841,-0.10899 6.38553,-13.48715 z m 67.49859,5.76285 c 0.68144,-4.5375 1.47492,-14.55 1.7633,-22.25 0.46142,-12.3204 0.21629,-15.56584 -2.04325,-27.05173 -1.41216,-7.17845 -2.87713,-16.76355 -3.25547,-21.30021 -0.54822,-6.57369 -0.97902,-8.13676 -2.12172,-7.69827 -0.7886,0.30262 -7.6311,0.55021 -15.20555,0.55021 h -13.77173 l 1.31929,5.086 c 0.72561,2.79729 2.52212,8.08479 3.99224,11.75 1.66854,4.15986 3.13827,10.6096 3.91126,17.164 0.68106,5.775 2.5195,19.8375 4.08541,31.25 l 2.84711,20.75 h 8.62007 8.62008 z m 6.79356,-51.75 c 0.89186,0 2.39026,0.69566 3.32978,1.54591 1.5967,1.44499 1.65248,1.2476 0.85453,-3.02363 -0.46952,-2.51324 -2.2888,-7.8214 -4.04284,-11.79591 -1.75405,-3.9745 -3.79631,-9.02637 -4.53838,-11.22637 -1.24358,-3.68685 -1.30584,-3.13884 -0.79517,7 0.79063,15.69746 1.54621,21.11722 2.66525,19.11761 0.49789,-0.88969 1.63497,-1.61761 2.52683,-1.61761 z m -46.47095,-27.70573 c -1.2375,-0.23836 -3.2625,-0.23836 -4.5,0 -1.2375,0.23835 -0.225,0.43337 2.25,0.43337 2.475,0 3.4875,-0.19502 2.25,-0.43337 z m 34.14187,-22.29427 c -0.10272,-20.42198 -1.45585,-37.22857 -4.78828,-59.47278 -0.93782,-6.25998 -1.04325,-9.83616 -0.34874,-11.82845 2.04451,-5.86486 -2.22272,-20.70731 -5.94862,-20.69073 -0.99343,0.004 -11.91628,1.80441 -24.27301,4 -12.35673,2.19558 -22.81923,3.99196 -23.25,3.99196 -0.43077,0 -0.84708,3.7125 -0.92513,8.25 -0.11458,6.66187 -0.27977,7.48 -0.85809,4.25 -0.66385,-3.70766 -0.72656,-3.54753 -0.85809,2.19098 -0.0786,3.427 0.32973,6.48248 0.91451,6.84389 0.69019,0.42656 0.83637,3.56701 0.42167,9.05902 -0.41073,5.43944 -0.27637,8.40611 0.38071,8.40611 0.60204,0 0.78422,1.42493 0.44749,3.5 -0.38439,2.36869 -0.18067,3.5 0.63026,3.5 0.75251,0 0.95644,0.76181 0.54822,2.04799 -0.3575,1.12639 -0.14704,2.65402 0.4677,3.39474 0.61474,0.74071 1.04862,1.73162 0.9642,2.20201 -0.0844,0.47039 -0.0692,1.08026 0.0338,1.35526 0.10303,0.275 0.35283,1.75829 0.55513,3.2962 0.20229,1.53792 2.26003,6.71292 4.57275,11.5 5.71896,11.83766 15.88894,22.11575 27.70169,27.99615 4.55403,2.267 8.94153,3.86798 9.75,3.55774 0.80847,-0.31024 1.46995,-0.0863 1.46995,0.49761 0,0.58392 1.57997,1.35808 3.51105,1.72035 1.93107,0.36227 3.77353,1.0834 4.09435,1.6025 0.32083,0.5191 1.55336,0.80559 2.73896,0.63664 2.13504,-0.30425 2.15461,-0.51269 2.04751,-21.80719 z m -69.51018,18.25 0.11831,2.75 28.75,-0.0489 28.75,-0.0489 -6.35742,-2.44573 c -14.64649,-5.63456 -26.87254,-16.59942 -34.18861,-30.66182 -4.00149,-7.69137 -8.95397,-24.24185 -8.95397,-29.92287 0,-1.57948 -0.45,-2.87178 -1,-2.87178 -1.1865,0 -1.2421,-6.79987 -0.10367,-12.67919 0.44507,-2.29856 0.49152,-4.69325 0.10322,-5.32154 -0.3883,-0.62828 -1.28615,5.20075 -1.99522,12.95342 -0.70907,7.75266 -1.00012,14.38485 -0.64677,14.7382 0.35334,0.35334 0.67797,-1.79506 0.72139,-4.77422 0.0434,-2.97917 0.32101,-4.8089 0.61686,-4.06608 0.29586,0.74283 -0.75217,14.46783 -2.32894,30.5 -2.15351,21.89624 -3.0144,27.90527 -3.45976,24.14941 -0.57384,-4.83921 -0.59831,-4.87137 -0.76101,-1 -0.0925,2.2 -0.37285,5.8 -0.62309,8 -0.3981,3.50001 -0.34902,3.62501 0.39269,1 l 0.84767,-3 z m 71.84811,-6.9777 c -0.21648,-2.07476 -0.39722,-0.6223 -0.40166,3.2277 -0.004,3.85 0.17268,5.54754 0.39359,3.7723 0.22091,-1.77523 0.22454,-4.92523 0.008,-7 z m 3.23957,-4.2723 c 0,-1.97894 -0.20204,-2.18736 -0.96937,-1 -0.53316,0.825 -0.96937,2.625 -0.96937,4 0,1.97894 0.20204,2.18736 0.96937,1 0.53316,-0.825 0.96937,-2.625 0.96937,-4 z m 13.03063,-5.5 v -10.5 l 4.75,-0.17471 4.75,-0.1747 -4.39188,-0.38973 c -2.45021,-0.21742 -5.10284,-1.15575 -6,-2.12242 -0.88447,-0.95299 -1.21994,-1.15432 -0.7455,-0.4474 1.05432,1.57091 -0.28776,2.1198 -6.36262,2.6022 -4.04442,0.32117 -3.90866,0.37503 1.34102,0.53205 l 5.84103,0.17471 -0.34103,10.50112 c -0.18756,5.77562 -0.004,10.50062 0.40898,10.5 0.4125,-6.1e-4 0.75,-4.72612 0.75,-10.50112 z m -87.28242,-3.23625 c -0.22985,-1.52006 -0.42406,-0.51375 -0.43156,2.23625 -0.008,2.75 0.18055,3.99369 0.41791,2.76375 0.23736,-1.22994 0.24351,-3.47994 0.0136,-5 z m 72.99867,-8.01375 c -0.22912,-1.5125 -0.41659,-0.275 -0.41659,2.75 0,3.025 0.18747,4.2625 0.41659,2.75 0.22913,-1.5125 0.22913,-3.9875 0,-5.5 z m -71.99867,-1.98625 c -0.22985,-1.52006 -0.42406,-0.51375 -0.43156,2.23625 -0.008,2.75 0.18055,3.99369 0.41791,2.76375 0.23736,-1.22994 0.24351,-3.47994 0.0136,-5 z m 69.98968,-0.50209 c -0.23919,-1.24391 -0.44398,-0.46166 -0.45508,1.73834 -0.0111,2.2 0.18461,3.21775 0.4349,2.26166 0.25029,-0.95609 0.25937,-2.75609 0.0202,-4 z m 9.0973,-4.51166 c -1.17039,-2.0625 -2.76288,-4.2735 -3.53888,-4.91333 -2.637,-2.17431 -2.08242,-12.0279 1.11525,-19.81531 3.06842,-7.47263 3.0896,-8.32132 0.64951,-26.02136 -0.53075,-3.85 -0.97646,-13.3 -0.99047,-21 -0.014,-7.7 -0.49741,-20.525 -1.07423,-28.5 -0.57681,-7.975 -1.36758,-19.62751 -1.75725,-25.89446 l -0.70849,-11.394459 -5.36129,10.592059 c -6.38929,12.62302 -11.25317,26.43304 -10.09065,28.65041 0.44592,0.85055 1.53249,5.44318 2.41459,10.20584 0.88211,4.76267 2.79313,11.51267 4.24671,15 2.10976,5.06157 2.67955,8.1561 2.82464,15.34061 0.1,4.95 1.11307,15.525 2.25134,23.5 1.13826,7.975 2.35373,18.55 2.70104,23.5 1.01421,14.45509 1.03143,14.5 5.55935,14.5 h 3.88682 z m -78.08698,-4.98625 c -0.22985,-1.52006 -0.42406,-0.51375 -0.43156,2.23625 -0.008,2.75 0.18055,3.99369 0.41791,2.76375 0.23736,-1.22994 0.24351,-3.47994 0.0136,-5 z m 88.2562,-2.51375 c 0.0273,-1.82385 -1.77826,-2.17707 -5.72378,-1.11971 -2.82056,0.75588 -2.84587,2.88986 -0.0874,7.36971 l 2.15513,3.5 1.81491,-4 c 0.9982,-2.2 1.8267,-4.7875 1.84113,-5.75 z m -18.28079,4.51903 c -0.25354,-0.97297 -0.47766,-0.41903 -0.49804,1.23097 -0.0204,1.65 0.18706,2.44606 0.46099,1.76903 0.27392,-0.67703 0.29059,-2.02703 0.0371,-3 z m -1.98726,-5.51903 c -0.23835,-1.2375 -0.43337,-0.225 -0.43337,2.25 0,2.475 0.19502,3.4875 0.43337,2.25 0.23836,-1.2375 0.23836,-3.2625 0,-4.5 z m -66.98815,-6.48625 c -0.22985,-1.52006 -0.42406,-0.51375 -0.43156,2.23625 -0.008,2.75 0.18055,3.99369 0.41791,2.76375 0.23736,-1.22994 0.24351,-3.47994 0.0136,-5 z m 74.9447,3.48625 c -0.27741,-0.6875 -0.50439,-0.125 -0.50439,1.25 0,1.375 0.22698,1.9375 0.50439,1.25 0.27741,-0.6875 0.27741,-1.8125 0,-2.5 z m 3.21941,-2.5 c 0.11235,2.61138 0.36634,2.75 5.03885,2.75 5.52987,0 5.33399,0.33116 6.65435,-11.25 0.51405,-4.50884 0.36087,-5.75331 -0.70967,-5.76531 -1.06354,-0.0119 -1.03376,-0.22952 0.13478,-0.98469 1.16264,-0.75135 0.82527,-0.99943 -1.5,-1.103 -2.86474,-0.1276 -2.88729,-0.16211 -0.5,-0.76531 2.80668,-0.70918 3.78118,-3.01989 1.80279,-4.27474 -0.71654,-0.45448 -3.21529,-0.83322 -5.55279,-0.84164 l -4.25,-0.0153 v 3.97149 c 0,2.18431 -1.125,6.51531 -2.5,9.62443 -1.375,3.10912 -2.46837,6.60945 -2.42971,7.77851 0.0686,2.07399 0.0911,2.07704 0.92971,0.12557 0.74887,-1.74272 0.88369,-1.61408 1.04803,1 l 0.1886,3 0.76337,-3 0.76337,-3 z m -10.21941,-1.5 c -0.27741,-0.6875 -0.50439,-0.125 -0.50439,1.25 0,1.375 0.22698,1.9375 0.50439,1.25 0.27741,-0.6875 0.27741,-1.8125 0,-2.5 z m -1.95502,-2.98834 c -0.23919,-1.24391 -0.44398,-0.46166 -0.45508,1.73834 -0.0111,2.2 0.18461,3.21775 0.4349,2.26166 0.25029,-0.95609 0.25937,-2.75609 0.0202,-4 z M 49.372882,211.5483 c 0,0.45024 1.55945,-0.69286 3.465445,-2.54023 3.408371,-3.30352 3.433075,-3.38691 1.5,-5.06346 -1.080995,-0.93754 -1.965445,-2.18401 -1.965445,-2.76994 0,-0.58592 -0.9,-1.35096 -2,-1.70009 -2.163799,-0.68676 -2.802738,-4.50877 -0.75,-4.48635 3.974145,0.0434 5.798825,1.41727 6.939677,5.2251 l 1.200956,4.00843 2.292126,-2.66475 c 2.696076,-3.13438 2.539198,-7.05963 -0.284924,-7.12914 -1.043809,-0.0257 -1.766933,-0.64339 -1.606941,-1.37268 0.179889,-0.81998 -0.284887,-1.10502 -1.217975,-0.74697 -1.758221,0.6747 -3.098984,-0.89048 -1.571492,-1.83452 0.568728,-0.35149 2.846819,0.79666 5.062426,2.55145 2.215606,1.7548 4.341375,2.87754 4.723931,2.49498 0.382555,-0.38256 0.0243,-1.08136 -0.796114,-1.5529 -0.820419,-0.47155 -3.061721,-2.02764 -4.980672,-3.458 -1.922885,-1.43328 -3.64671,-2.12751 -3.840346,-1.5466 -0.19324,0.57971 -1.660689,1.73112 -3.260999,2.55867 l -2.909653,1.50464 -0.239507,-67.77568 -0.239507,-67.775684 -0.510493,67.500004 -0.510493,67.5 -5.750001,5.39506 c -3.1625,2.96728 -5.75,5.80634 -5.75,6.30901 0,0.50268 0.454027,0.63336 1.008949,0.2904 1.554236,-0.96057 4.991051,0.46683 4.991051,2.07292 0,0.78793 0.45,1.43261 1,1.43261 0.55,0 1,0.46899 1,1.04221 0,2.04138 2.43049,3.81406 3.750001,2.73506 0.6875,-0.56219 1.25,-0.65378 1.25,-0.20355 z m 128.683108,-0.76122 c -0.31922,-0.79773 -0.55618,-0.56078 -0.60416,0.60417 -0.0434,1.05416 0.19292,1.64479 0.52522,1.3125 0.33229,-0.3323 0.36781,-1.1948 0.0789,-1.91667 z m -2.02083,-3.0625 c -0.27741,-0.6875 -0.50439,-0.125 -0.50439,1.25 0,1.375 0.22698,1.9375 0.50439,1.25 0.27741,-0.6875 0.27741,-1.8125 0,-2.5 z m -0.97295,-7.5 c -0.25153,-0.9625 -0.45733,-0.175 -0.45733,1.75 0,1.925 0.2058,2.7125 0.45733,1.75 0.25152,-0.9625 0.25152,-2.5375 0,-3.5 z m -1,-7 c -0.25153,-0.9625 -0.45733,-0.175 -0.45733,1.75 0,1.925 0.2058,2.7125 0.45733,1.75 0.25152,-0.9625 0.25152,-2.5375 0,-3.5 z m 28.4557,-2.5 c 0.72915,-3.9875 1.26659,-11.075 1.1943,-15.75 -0.0723,-4.675 -0.29807,-22.58347 -0.50175,-39.79659 -0.31114,-26.29568 -0.60739,-31.44649 -1.85395,-32.23469 -0.99595,-0.62974 -1.07275,-0.94313 -0.23363,-0.95341 0.6875,-0.008 1.25,-0.46531 1.25,-1.01531 0,-0.59259 -3.66667,-0.999999 -9,-0.999999 -11.15647,0 -12.24435,1.915749 -1.25,2.201239 l 7.75,0.20125 -7.5,0.33544 -7.5,0.33544 0.69658,12.71331 c 0.38312,6.99233 1.16077,24.86332 1.72811,39.71332 0.56734,14.85 1.48878,29.7 2.04763,33 0.55885,3.3 1.0187,6.3375 1.02189,6.75 0.003,0.4125 1.01829,0.79486 2.25579,0.84968 2.15857,0.0956 2.14841,0.13222 -0.25,0.90032 -1.91788,0.61421 -1.18217,0.82385 3.15965,0.90032 l 5.65965,0.0997 1.32573,-7.25 z M 66.372882,190.00213 c -2.853091,-2.20028 -10.870256,-6.7483 -9.781753,-5.54905 0.395036,0.43523 2.870036,2.28082 5.5,4.10131 5.108246,3.53599 8.458416,4.66875 4.281753,1.44774 z m 106.689328,-3.77755 c -0.25153,-0.9625 -0.45733,-0.175 -0.45733,1.75 0,1.925 0.2058,2.7125 0.45733,1.75 0.25152,-0.9625 0.25152,-2.5375 0,-3.5 z M 74.754062,179.96809 C 85.028684,162.69526 95.53704,132.54462 99.758719,108.22458 l 0.564161,-3.25 -5.724998,-0.0703 c -4.381969,-0.0538 -5.255819,-0.29268 -3.725,-1.01831 1.495,-0.70864 0.989999,-0.81993 -2,-0.44072 -2.2,0.27902 -4.971842,0.51226 -6.159649,0.51831 -1.888088,0.01 -2.299135,0.85977 -3.26895,6.76101 -0.610117,3.7125 -1.708556,12.61496 -2.440977,19.78325 -1.149172,11.24707 -1.715928,13.64194 -4.135476,17.47475 -3.247459,5.14431 -6.194814,11.59627 -11.532895,25.24628 l -3.814584,9.75428 2.176265,1.05088 c 2.103816,1.01591 2.111644,0.99912 0.235136,-0.50427 -2.220393,-1.77891 -1.368906,-2.05906 1.53488,-0.505 1.079246,0.5776 1.717322,1.4465 1.417946,1.9309 -0.299376,0.48441 -0.01745,1.20636 0.626501,1.60434 0.731227,0.45192 0.902922,0.29014 0.457295,-0.4309 -0.99735,-1.61375 0.644925,-1.4399 2.963378,0.31369 1.067622,0.8075 2.19281,1.4825 2.500418,1.5 0.307609,0.0175 2.70246,-3.57112 5.321892,-7.97469 z m 98.301928,1.81899 c -0.31922,-0.79773 -0.55618,-0.56078 -0.60416,0.60417 -0.0434,1.05416 0.19292,1.64479 0.52522,1.3125 0.33229,-0.3323 0.36781,-1.1948 0.0789,-1.91667 z m 1.02262,-8.0625 c -0.23835,-1.2375 -0.43337,-0.225 -0.43337,2.25 0,2.475 0.19502,3.4875 0.43337,2.25 0.23836,-1.2375 0.23836,-3.2625 0,-4.5 z m -1.02262,-4.9375 c -0.31922,-0.79773 -0.55618,-0.56078 -0.60416,0.60417 -0.0434,1.05416 0.19292,1.64479 0.52522,1.3125 0.33229,-0.3323 0.36781,-1.1948 0.0789,-1.91667 z m -52.43311,-2.47478 c -0.6875,-0.27741 -1.8125,-0.27741 -2.5,0 -0.6875,0.27741 -0.125,0.50439 1.25,0.50439 1.375,0 1.9375,-0.22698 1.25,-0.50439 z m 1.18362,-2.2355 c 1.39803,-0.54748 1.59003,-0.96957 0.69317,-1.52386 -1.55052,-0.95828 -6.12679,0.11782 -6.12679,1.44069 0,1.13624 2.64126,1.17667 5.43362,0.0832 z m 5.80878,0.32205 c 0.31665,-0.31666 3.87373,-0.75038 7.90461,-0.96383 4.03088,-0.21345 7.46837,-0.80659 7.63888,-1.3181 0.1705,-0.51152 1.07593,-0.73313 2.01206,-0.49249 0.93613,0.24065 3.50205,0.0443 5.70205,-0.43627 l 4,-0.87381 -3.14831,-0.727 c -2.92746,-0.67601 -5.28658,-4.10204 -3.31542,-4.81482 0.45318,-0.16387 0.21729,-1.12102 -0.5242,-2.127 -1.16566,-1.58145 -1.66383,-1.65457 -3.68011,-0.54019 -1.28258,0.70887 -3.00696,1.20753 -3.83196,1.10814 -0.97017,-0.11688 -1.05848,0.0151 -0.25,0.37353 0.6875,0.30483 1.25,1.13928 1.25,1.85433 0,1.70961 -5.01074,2.66883 -5.62189,1.0762 -0.33171,-0.86443 -1.88966,-0.52765 -5.45701,1.17962 -2.9374,1.40579 -5.80135,2.13282 -6.95693,1.76605 -1.11481,-0.35383 -1.96417,-0.16184 -1.96417,0.44398 0,0.58707 0.675,1.06739 1.5,1.06739 1.35287,0 1.94411,1.1873 1.61842,3.25 -0.13878,0.87894 2.28414,1.0141 3.12398,0.17427 z m 8.98098,-3.92427 c 0.36586,-2.46327 4.77662,-3.4509 4.77662,-1.06955 0,0.86325 -0.7875,1.56266 -1.75,1.55424 -1.49555,-0.0131 -1.5319,-0.15626 -0.25,-0.98469 0.91752,-0.59295 1.0339,-0.97532 0.29969,-0.98469 -0.66017,-0.008 -1.68924,0.77219 -2.28683,1.73469 -0.99325,1.59978 -1.06102,1.57832 -0.78948,-0.25 z m 8.27662,-0.42092 c -2.26927,-0.88541 -2.94973,-6.07908 -0.79647,-6.07908 0.71306,0 1.29647,-0.47656 1.29647,-1.05902 0,-0.58246 0.45,-0.7809 1,-0.44098 1.59603,0.9864 1.15793,2.49288 -0.75,2.57895 -1.13047,0.051 -1.28872,0.26376 -0.447,0.601 0.97968,0.39251 0.85561,0.88761 -0.5,1.99527 -1.69993,1.389 -1.67648,1.4463 0.41023,1.00223 1.21728,-0.25904 2.73488,0.15756 3.37245,0.92578 1.33262,1.60571 -0.17658,1.80599 -3.58568,0.47585 z m -4.62087,-11.15345 22.62087,-11.07436 1.72783,-7.17564 c 2.28496,-9.48938 16.0089,-37.242769 18.77397,-37.965849 1.10053,-0.28779 1.74878,-0.11523 1.44056,0.38348 -0.32122,0.51975 2.98582,0.82985 7.74862,0.72658 l 8.30902,-0.18016 -7.5,-0.63968 -7.5,-0.63968 8.25,-0.18016 c 5.77396,-0.12609 8.28041,-0.55532 8.35132,-1.43016 0.55607,-6.86057 -2.05991,-17.02379 -5.36221,-20.83247 -3.44124,-3.96892 -8.71614,-7.5541 -14.40597,-9.79127 -5.85048,-2.300331 -6.28767,-2.071507 -8.35634,4.37374 -2.44291,7.61123 -9.30238,15.8687 -15.54485,18.71296 -1.89205,0.86207 -2.43805,2.09731 -2.94941,6.67248 -0.96286,8.6148 -0.51936,8.23435 -9.2174,7.9069 l -7.76514,-0.29234 -0.30697,-4.80324 c -0.33217,-5.19764 -0.40081,-5.25383 -7.44303,-6.09269 l -4.75,-0.56581 v 5.48087 5.48087 h -9 -9 v -11.94284 c 0,-9.91495 -0.32314,-12.5044 -1.90309,-15.25 -1.04671,-1.81894 -2.20738,-4.76928 -2.57927,-6.55632 -0.60631,-2.91342 -0.95214,-3.18383 -3.34691,-2.61691 -12.970551,3.07056 -18.170728,9.74616 -18.170728,23.32623 v 8.03984 l 6.25,0.16811 6.25,0.16811 -5.5,0.71775 c -3.996091,0.52149 -2.823114,0.62301 4.289736,0.3713 9.685552,-0.34276 9.799952,-0.31957 10.750002,2.17924 0.52814,1.38913 0.96026,3.65741 0.96026,5.040629 0,1.38322 1.32936,6.28129 2.95412,10.8846 3.83287,10.85933 8.04588,32.57755 8.04588,41.4768 0,3.8464 0.28311,6.99346 0.62913,6.99346 0.34603,0 10.80853,-4.98346 23.25,-11.07437 z m -21.80018,7.49104 c 0.048,-1.16495 0.28494,-1.4019 0.60416,-0.60417 0.28887,0.72187 0.25335,1.58437 -0.0789,1.91667 -0.3323,0.33229 -0.56864,-0.25834 -0.52522,-1.3125 z m 39.67105,2.86708 c -3.48504,-0.52794 -3.69484,-3.28375 -0.25,-3.28375 1.53181,0 2.5,-0.56876 2.5,-1.46862 0,-1.51963 -2.28568,-1.16052 -4.75,0.7463 -0.8838,0.68386 -1.25,0.4919 -1.25,-0.65524 0,-0.89234 0.5625,-1.69098 1.25,-1.77475 2.36153,-0.28776 3.25646,-0.53847 6.13869,-1.71974 4.42678,-1.81429 2.43499,-2.40189 -2.4439,-0.72097 -4.25457,1.46582 -5.94479,1.34225 -5.94479,-0.43461 0,-0.50028 0.62948,-0.66805 1.39885,-0.37281 0.76937,0.29523 1.70046,0.0488 2.0691,-0.5477 0.36863,-0.59647 1.084,-0.82877 1.58969,-0.51623 0.5057,0.31253 0.65146,-0.13013 0.32392,-0.98369 -0.66065,-1.72161 -2.38156,-2.12044 -2.38156,-0.55194 0,0.55 -1.14083,1 -2.53518,1 -2.19659,0 -2.39693,0.25834 -1.5,1.93426 1.40916,2.63304 1.31613,3.04712 -0.71482,3.18174 -1.66667,0.11048 -1.66667,0.13778 0,0.57333 1.5219,0.39771 1.99093,1.51038 1.66459,3.94887 -0.15585,1.1645 2.54955,2.3331 5.08541,2.19666 2.38734,-0.12846 2.37607,-0.1533 -0.25,-0.55111 z m 8.16667,-0.64011 c -0.22917,-0.196 -1.99167,-0.64537 -3.91667,-0.9986 -2.46242,-0.45185 -3.05532,-0.35075 -2,0.34104 1.35564,0.88866 6.90843,1.50578 5.91667,0.65756 z m -14.1875,-2.24781 c -0.3323,-0.33229 -1.1948,-0.36781 -1.91667,-0.0789 -0.79773,0.31922 -0.56078,0.55618 0.60417,0.60416 1.05416,0.0434 1.64479,-0.19293 1.3125,-0.52522 z m 14.71283,-1.98169 c -0.0319,-1.05278 -0.40767,-4.24783 -0.83504,-7.10012 -0.58681,-3.91648 -1.12965,-5.05067 -2.21752,-4.63322 -1.02172,0.39207 -1.14137,0.91318 -0.41156,1.79255 1.76551,2.1273 3.01549,10.89718 1.68836,11.84553 -0.79209,0.56602 -0.68501,0.70121 0.33376,0.42139 0.825,-0.2266 1.4739,-1.27335 1.442,-2.32613 z m -2.67094,-1.22732 c 0.24358,-0.73075 -0.21359,-0.95424 -1.1875,-0.58051 -0.87096,0.33422 -1.58356,1.04702 -1.58356,1.58401 0,1.31439 2.27278,0.49134 2.77106,-1.0035 z m -13.27106,-2.18682 c 0.33992,-0.55 0.16803,-1 -0.38197,-1 -0.55,0 -1.27811,0.45 -1.61803,1 -0.33992,0.55 -0.16803,1 0.38197,1 0.55,0 1.27811,-0.45 1.61803,-1 z m 11.92516,-5.1211 c -0.64806,-1.04858 -2.42516,-0.20682 -2.42516,1.14873 0,0.50028 0.67242,0.65157 1.49426,0.3362 0.82184,-0.31537 1.24074,-0.98359 0.9309,-1.48493 z M 98.122882,103.28525 c -0.9625,-0.25152 -2.5375,-0.25152 -3.5,0 -0.9625,0.25153 -0.175,0.45733 1.75,0.45733 1.925,0 2.7125,-0.2058 1.75,-0.45733 z m -11.5,-0.97295 c -0.6875,-0.27741 -1.8125,-0.27741 -2.5,0 -0.6875,0.27741 -0.125,0.50439 1.25,0.50439 1.375,0 1.9375,-0.22698 1.25,-0.50439 z m 14.749998,-1.33772 c 0,-0.56355 -3.382463,-1.086719 -7.749998,-1.198699 l -7.75,-0.19869 7.5,-0.50594 7.499998,-0.50594 -7.499998,-0.61521 -7.5,-0.6152 8,-0.29516 c 7.163898,-0.26431 7.581948,-0.38163 4,-1.12253 -2.2,-0.45505 -6.8125,-0.8533 -10.25,-0.885 -4.914502,-0.0453 -6.25,0.26289 -6.25,1.44237 0,0.825 0.7875,1.5522 1.75,1.616 1.666667,0.11048 1.666667,0.13778 0,0.57333 -3.155932,0.82473 -1.834045,2.188099 2.5,2.578459 9.038229,0.81406 15.749998,0.69994 15.749998,-0.26779 z m 96.28017,-2.730729 c -2.3209,-0.20972 -6.3709,-0.21222 -9,-0.006 -2.62909,0.20667 -0.73017,0.37827 4.21983,0.38131 4.95,0.003 7.10108,-0.16605 4.78017,-0.37577 z m 4.21983,-2.26927 c -0.33992,-0.55 -4.41648,-1 -9.05902,-1 -4.96065,0 -8.44098,0.41231 -8.44098,1 0,0.59308 3.68634,1 9.05902,1 5.7847,0 8.83563,-0.36144 8.44098,-1 z m 6.5,-2 c 0,-2.33333 -0.44444,-3 -2,-3 -1.55556,0 -2,0.66667 -2,3 0,2.33333 0.44444,3 2,3 1.55556,0 2,-0.66667 2,-3 z m -84.5,-1 c 0,-2.36882 -0.32862,-2.51564 -6.26294,-2.79805 -6.5381,-0.31115 -8.23213,0.76256 -6.85699,4.3461 0.46685,1.21659 1.93504,1.48424 6.85699,1.25 5.93432,-0.28241 6.26294,-0.42923 6.26294,-2.79805 z m 29.57651,2.25 c 0.0421,-0.4125 0.22726,-1.5375 0.41152,-2.5 0.29292,-1.53018 -0.53316,-1.75 -6.57651,-1.75 -6.70562,0 -6.91152,0.0745 -6.91152,2.5 0,2.41026 0.23333,2.5 6.5,2.5 3.575,0 6.53443,-0.3375 6.57651,-0.75 z m 0.59454,-23.30059 c -0.41981,-11.11919 -0.30063,-16.838517 0.3426,-16.440979 0.54249,0.335279 0.98635,0.17054 0.98635,-0.366086 0,-0.536626 -0.5625,-1.202657 -1.25,-1.480069 -3.11879,-1.258459 4.97551,-0.473513 14.21288,1.378296 23.99758,4.810778 33.1633,11.956258 34.84418,27.164078 0.53465,4.83733 1.09269,6.34625 2.44294,6.60571 1.53335,0.29466 1.75,-0.53892 1.75,-6.73336 0,-9.00786 -3.95612,-27.774191 -7.76728,-36.845028 -6.82759,-16.250159 -22.61536,-31.081533 -39.02641,-36.6622629 -7.77923,-2.645401 -19.23001,-4.406822 -19.17031,-2.94888 0.0198,0.483541 1.09385,5.6998039 2.38677,11.5916949 2.79825,12.751784 2.26611,17.152722 -3.1403,25.970837 -3.16709,5.165682 -3.43142,6.167645 -2.90192,11 0.32042,2.924149 0.87156,11.954139 1.22476,20.066639 l 0.64219,14.75 h 7.53365 7.53365 z m -29.17105,-0.69943 c 0,-9.21249 0.30349,-18.402219 0.67441,-20.421615 l 0.67441,-3.671631 -2.92603,1.02002 c -1.60931,0.561011 -4.64036,2.967609 -6.73566,5.347994 -4.49852,5.110592 -6.0107,10.539512 -6.88697,24.725252 l -0.60228,9.75 7.90106,-1e-5 7.90106,-2e-5 z m 12.31955,11.50002 c -0.25173,-1.77248 -0.90319,-2.20693 -3.06955,-2.04706 -1.5125,0.11162 -2.75,-0.19791 -2.75,-0.68785 0,-1.71907 -4.00686,-0.56883 -4.60717,1.32257 -0.80471,2.53543 1.12098,3.62821 6.42672,3.64702 3.91116,0.0139 4.28934,-0.19741 4,-2.23468 z m 29.57426,-8.20555 c 2.85088,-3.74495 6.10873,-10.1538 6.95519,-13.68229 0.56551,-2.357336 0.30687,-2.685674 -2.43229,-3.087697 -2.5882,-0.379867 -2.99032,-0.163939 -2.58452,1.387836 0.26432,1.010731 0.1631,1.837701 -0.22492,1.837701 -0.38802,0 -1.2585,1.5293 -1.93439,3.39845 -0.6759,1.86916 -3.2413,5.25342 -5.70089,7.5206 -3.41341,3.14637 -4.47199,4.84255 -4.47199,7.16553 v 3.04338 l 4.03809,-2.26953 c 2.22095,-1.24824 5.08102,-3.63954 6.35572,-5.31398 z m -30.9756,2.84856 c 1.11023,-0.42604 1.58179,-1.91664 1.58179,-5 0,-4.10599 -0.17641,-4.39301 -2.7,-4.39301 -2.92048,0 -2.20478,-1.41173 1.2,-2.36702 1.1,-0.30864 0.65,-0.32754 -1,-0.042 -5.36863,0.92901 -5.99552,0.92247 -6.325,-0.066 -0.17875,-0.53625 0.22139,-1.15713 0.8892,-1.37974 0.6678,-0.2226 0.94102,0.0373 0.60715,0.57749 -0.38047,0.61561 0.88482,0.58402 3.38993,-0.0846 l 3.99697,-1.06685 -0.77173,-4.535636 c -1.38991,-8.168809 -0.88559,-11.426965 2.61251,-16.878279 5.1545,-8.032604 5.47331,-10.812144 2.86774,-25.002468 l -2.26677,-12.3451169 -3.82151,0.509547 c -2.10183,0.280251 -5.62147,1.70071 -7.82143,3.156575 -3.25392,2.1533429 -3.77924,2.9129469 -2.81662,4.0728299 1.26654,1.526094 0.65038,4.451273 -0.93763,4.451273 -0.52797,0 -1.6671,-0.707143 -2.53138,-1.571429 -1.77015,-1.770153 -2.02276,-1.246852 -0.64443,1.334998 0.50985,0.955037 1.17073,2.523931 1.46862,3.486431 0.44303,1.431492 1.72395,1.75 7.03781,1.75 7.35064,0 8.56657,1.062263 8.56657,7.483918 0,4.426364 -1.75878,7.960322 -6.94238,13.949504 -2.18408,2.523505 -4.2061,6.045829 -4.49339,7.827385 -0.75547,4.684944 -0.20749,17.735528 0.74479,17.737508 0.44496,9.3e-4 0.55684,0.40972 0.24862,0.90843 -0.30822,0.4987 0.41059,0.65282 1.59735,0.34247 1.27577,-0.33362 1.91105,-0.16508 1.55419,0.41232 -0.36077,0.58374 0.58197,0.80258 2.34363,0.54402 1.75738,-0.25793 2.94719,0.017 2.94719,0.68095 0,0.61242 -0.7875,1.16133 -1.75,1.21979 -0.9625,0.0585 -2.65,0.17097 -3.75,0.25 -1.1,0.079 -2.33061,-0.30629 -2.73469,-0.85629 -0.41556,-0.56564 -0.74134,-0.245 -0.75,0.73818 -0.0112,1.27269 1.12285,1.92508 4.23469,2.43608 3.79242,0.62276 3.98084,0.7748 1.75,1.41214 -1.42951,0.4084 -1.78568,0.75692 -0.83179,0.81392 0.91752,0.0548 2.38002,-0.17347 3.25,-0.50731 z m -4.91113,-8.38156 c -0.35034,-0.56686 0.0511,-0.73451 0.94098,-0.39301 1.73242,0.66479 2.04939,1.38156 0.61096,1.38156 -0.51754,0 -1.21592,-0.44485 -1.55194,-0.98855 z m -3.17368,-6.70744 c -5e-5,-0.89133 0.53063,-0.92051 2.08327,-0.11455 2.9672,1.54026 2.98526,1.62387 0.31498,1.45879 -1.319,-0.0815 -2.39822,-0.68645 -2.39825,-1.34424 z m 32.12199,4.6238 c -0.2736,-0.44269 0.29951,-1.26887 1.27358,-1.83595 0.97407,-0.56707 1.32103,-1.05162 0.77103,-1.07677 -0.55,-0.0251 -0.37671,-0.44046 0.3851,-0.92292 1.10809,-0.70177 0.9626,-1.10332 -0.72749,-2.00783 -1.81148,-0.96947 -2.02032,-0.89014 -1.46517,0.55656 0.40528,1.05613 0.25208,1.44284 -0.4096,1.0339 -0.60112,-0.37151 -0.9979,0.0969 -0.91994,1.08596 0.0754,0.95658 -0.34358,1.65401 -0.93108,1.54984 -0.5875,-0.10417 -1.06818,1.12903 -1.06818,2.74045 0,2.75472 0.10726,2.83276 1.7946,1.30574 0.98703,-0.89325 1.57074,-1.98629 1.29715,-2.42898 z m -49.9886,-6.87408 c 0.99312,-1.606892 -0.92032,-1.926489 -2.89392,-0.483362 -1.76132,1.287912 -1.79979,1.712032 -0.50974,5.620902 l 1.39532,4.22788 0.72125,-4.22494 c 0.39669,-2.32372 0.97588,-4.63693 1.28709,-5.14048 z m 48.53321,0.56871 c 0,-0.20766 -0.7875,-0.99516 -1.75,-1.75 -1.58606,-1.243871 -1.62143,-1.208501 -0.37756,0.377555 1.30637,1.665745 2.12756,2.195475 2.12756,1.372445 z m 5.5,-0.62244 c -0.33992,-0.550005 -1.06803,-1.000005 -1.61803,-1.000005 -0.55,0 -0.72189,0.45 -0.38197,1.000005 0.33992,0.55 1.06803,1 1.61803,1 0.55,0 0.72189,-0.45 0.38197,-1 z M 44.287283,53.974576 c -0.03625,-0.989055 -0.34772,-0.81874 -0.914402,0.5 -1.181322,2.749085 -1.181322,4.327966 0,2.5 0.533156,-0.825 0.944637,-2.175 0.914402,-3 z m 114.285597,1.8 c -0.64167,-0.641667 -1.49863,-0.834699 -1.90437,-0.42896 -0.40574,0.405738 -0.0888,1.13877 0.70437,1.62896 1.86759,1.154235 2.71091,0.310913 1.2,-1.2 z M 85.247129,49.578451 c 4.308579,-8.751966 13.58833,-17.318533 24.461291,-22.581349 4.57079,-2.212389 9.00276,-4.022526 9.84882,-4.022526 2.01074,0 1.23312,-4.62582 -0.91627,-5.450619 -2.27696,-0.873749 -20.149746,11.446556 -26.185246,18.050355 -2.847323,3.115425 -6.005389,7.292476 -7.017925,9.282337 -1.727146,3.39423 -4.243086,11.117927 -3.621587,11.117927 0.155164,0 1.699076,-2.878256 3.430917,-6.396125 z"
     id="path224"
     inkscape:connector-curvature="0"
     clip-path="url(#clipPath237)"
     transform="translate(-60.474576,-1.466276)"
     inkscape:export-xdpi="96"
     inkscape:export-ydpi="96" />
</svg>
